<svg xmlns="http://www.w3.org/2000/svg" viewBox="0 0 414 216" font-family="ui-monospace,'Cascadia Mono','SFMono-Regular',Consolas,monospace"><rect x="0" y="0" width="400" height="216" rx="8" fill="#00000f"/><text x="16" y="26" fill="#7a86ad" font-size="10" letter-spacing="1.5">ACTIVITY</text><polygon points="128.0,102.0 148.9,117.2 140.9,141.8 115.1,141.8 107.1,117.2" fill="none" stroke="rgba(122,134,173,0.25)" stroke-dasharray="3 3"/><polygon points="128.0,80.0 169.8,110.4 153.9,159.6 102.1,159.6 86.2,110.4" fill="none" stroke="rgba(122,134,173,0.25)" stroke-dasharray="3 3"/><polygon points="128.0,58.0 190.8,103.6 166.8,177.4 89.2,177.4 65.2,103.6" fill="none" stroke="rgba(122,134,173,0.25)" stroke-dasharray="3 3"/><polygon points="128.0,77.0 172.0,109.7 151.9,156.9 121.2,133.3 111.1,118.5" fill="rgba(255,200,55,0.22)" stroke="#ffc837" stroke-width="1.6"/><text x="290" y="62" fill="#e8ecff" font-size="13" text-anchor="end">709</text><text x="300" y="62" fill="#7a86ad" font-size="10.5">commits</text><text x="290" y="91" fill="#e8ecff" font-size="13" text-anchor="end">636</text><text x="300" y="91" fill="#7a86ad" font-size="10.5">pull requests</text><text x="290" y="120" fill="#e8ecff" font-size="13" text-anchor="end">289</text><text x="300" y="120" fill="#7a86ad" font-size="10.5">issues</text><text x="290" y="149" fill="#e8ecff" font-size="13" text-anchor="end">4</text><text x="300" y="149" fill="#7a86ad" font-size="10.5">reviews</text><text x="290" y="178" fill="#e8ecff" font-size="13" text-anchor="end">11</text><text x="300" y="178" fill="#7a86ad" font-size="10.5">repos created</text></svg>